<?xml version="1.0" encoding="UTF-8" standalone="no"?><!DOCTYPE svg PUBLIC "-//W3C//DTD SVG 1.1//EN" "http://www.w3.org/Graphics/SVG/1.1/DTD/svg11.dtd"><svg width="100%" height="100%" viewBox="0 0 384 384" version="1.1" xmlns="http://www.w3.org/2000/svg" xmlns:xlink="http://www.w3.org/1999/xlink" xml:space="preserve" xmlns:serif="http://www.serif.com/" style="fill-rule:evenodd;clip-rule:evenodd;stroke-linejoin:round;stroke-miterlimit:1.41421;"><path d="M273.509,241.372l-17.501,0l-6.571,-5.486c20.791,-25.232 33.922,-57.054 33.922,-93.257c-0.001,-78.997 -63.463,-142.629 -142.224,-142.629c-77.683,0 -141.135,63.632 -141.135,142.629c0,78.997 63.452,142.628 142.225,142.628c35.011,0 67.831,-13.167 92.991,-34.008l6.561,5.487l0,17.551l109.403,109.713l32.82,-32.914l-110.491,-109.714Zm-131.284,0c-54.702,0 -98.463,-43.887 -98.463,-98.743c0,-54.858 43.761,-98.742 98.463,-98.742c54.7,0 98.462,43.884 98.462,98.742c0,54.856 -43.762,98.743 -98.462,98.743Z" style="fill:#fff;fill-rule:nonzero;"/></svg>